<?xml version="1.0" encoding="UTF-8" ?>
<!DOCTYPE svg PUBLIC "-//W3C//DTD SVG 1.1//EN" "http://www.w3.org/Graphics/SVG/1.1/DTD/svg11.dtd">
<svg width="1000pt" height="1000pt" viewBox="0 0 1000 1000" version="1.1" xmlns="http://www.w3.org/2000/svg">
<g id="#000000ff">
</g>
<g id="#ffffffff">
<path fill="#ffffff" opacity="1.00" d=" M 631.58 259.55 C 642.63 249.01 658.16 244.91 673.09 244.65 C 684.99 244.65 697.46 245.92 707.97 251.98 C 715.60 256.44 722.59 262.50 726.60 270.52 C 727.09 271.47 727.59 272.43 728.11 273.38 C 728.88 274.89 729.53 276.48 730.19 278.05 C 730.51 279.04 730.85 280.02 731.21 281.00 C 731.81 283.34 732.45 285.68 733.16 288.00 C 734.44 295.95 735.50 303.97 735.32 312.05 C 735.34 353.71 735.30 395.38 735.32 437.05 C 735.42 443.35 734.86 449.68 733.79 455.87 C 733.30 458.33 732.72 460.76 732.19 463.21 C 731.84 464.20 731.51 465.20 731.20 466.22 C 730.72 467.49 730.30 468.78 729.86 470.08 C 725.16 481.12 716.66 490.52 705.85 495.83 C 692.60 502.25 677.30 503.47 662.86 501.50 C 648.40 499.47 633.86 492.69 625.54 480.27 C 615.58 467.10 613.82 449.99 613.76 434.02 C 613.91 421.68 613.53 409.33 613.96 397.01 C 613.51 376.33 613.92 355.63 613.77 334.94 C 613.96 318.24 612.67 301.20 617.10 284.89 C 619.63 275.37 624.77 266.64 631.58 259.55 M 661.60 282.68 C 654.56 288.52 653.60 298.44 653.36 306.97 C 653.22 347.99 653.32 389.01 653.30 430.03 C 653.40 437.70 652.76 445.55 655.05 453.00 C 656.74 458.01 660.12 462.94 665.33 464.71 C 672.19 467.11 680.16 467.12 686.64 463.56 C 690.35 461.57 692.47 457.68 693.84 453.85 C 695.95 447.79 695.67 441.32 695.77 435.01 C 695.74 392.32 695.87 349.66 695.75 306.99 C 695.77 301.15 695.43 295.14 693.22 289.67 C 690.86 284.37 685.95 279.60 679.92 279.23 C 673.70 278.97 666.67 278.31 661.60 282.68 Z" />
<path fill="#ffffff" opacity="1.00" d=" M 166.65 248.42 C 184.93 248.40 203.21 248.48 221.49 248.40 C 222.13 250.90 222.56 253.45 222.88 256.01 C 223.72 259.98 224.45 263.98 224.85 268.03 C 225.74 271.98 226.17 276.02 226.87 280.01 C 228.87 289.94 230.13 300.02 232.17 309.94 C 240.74 360.67 249.54 411.37 258.11 462.10 C 260.37 474.28 262.12 486.56 264.73 498.67 C 251.29 498.80 237.85 498.78 224.42 498.73 C 221.58 482.79 219.61 466.55 216.38 450.62 C 199.80 450.64 183.22 450.65 166.64 450.64 C 163.97 466.69 160.91 482.69 158.39 498.77 C 146.10 498.58 133.80 499.00 121.52 498.57 C 125.77 478.57 128.58 458.26 132.59 438.20 C 125.74 441.53 118.64 444.31 111.83 447.74 C 102.45 451.38 93.58 456.23 84.16 459.79 C 94.36 451.52 103.50 441.99 113.38 433.34 C 121.04 426.00 129.10 419.10 136.65 411.64 C 138.74 409.63 138.29 406.48 138.88 403.89 C 140.32 396.27 141.66 388.63 143.18 381.03 C 144.52 373.47 145.55 365.84 147.14 358.32 C 148.05 350.80 149.88 343.43 151.06 335.95 C 153.00 324.29 154.94 312.61 157.36 301.03 C 160.31 283.47 163.30 265.92 166.65 248.42 M 189.20 316.02 C 188.60 318.02 188.42 320.11 188.17 322.19 C 184.83 338.38 182.99 354.84 179.99 371.11 C 177.29 385.81 175.29 400.63 172.67 415.35 C 185.42 415.34 198.17 415.34 210.92 415.35 C 210.62 408.17 208.98 401.14 208.04 394.04 C 205.85 378.18 203.18 362.40 200.66 346.59 C 198.41 328.72 195.00 310.99 193.07 293.08 C 190.95 300.53 190.45 308.38 189.20 316.02 Z" />
<path fill="#ffffff" opacity="1.00" d=" M 278.37 248.38 C 291.38 248.49 304.40 248.35 317.41 248.46 C 317.50 284.66 317.14 320.87 317.59 357.06 C 329.45 333.26 340.48 309.08 351.79 285.02 C 357.54 272.90 363.06 260.68 368.80 248.55 C 381.77 248.30 394.74 248.43 407.71 248.50 C 390.40 285.00 373.01 321.50 355.66 358.00 C 355.63 358.49 355.56 359.47 355.53 359.97 C 356.05 360.91 356.50 361.90 356.89 362.92 C 368.69 393.55 380.13 424.32 391.86 454.98 C 394.39 461.61 396.65 468.35 399.26 474.95 C 402.27 482.87 404.92 490.97 408.71 498.55 C 394.93 498.89 381.10 498.84 367.33 498.61 C 364.69 492.08 362.52 485.33 360.17 478.68 C 357.98 473.42 355.98 468.07 354.21 462.65 C 345.89 440.94 338.07 419.04 329.85 397.29 C 325.97 405.25 322.01 413.18 318.14 421.15 C 317.08 422.92 317.40 425.05 317.33 427.02 C 317.44 450.89 317.31 474.75 317.44 498.62 C 304.47 498.87 291.48 498.76 278.50 498.67 C 278.34 415.24 278.40 331.81 278.37 248.38 Z" />
<path fill="#ffffff" opacity="1.00" d=" M 421.25 248.41 C 439.92 248.51 458.60 248.28 477.26 248.53 C 478.06 254.69 479.17 260.82 480.17 266.94 C 480.42 268.97 480.57 271.04 481.12 273.03 C 486.47 303.61 491.62 334.23 497.10 364.80 C 500.07 383.22 503.78 401.52 506.95 419.90 C 507.31 420.89 507.67 421.89 508.04 422.90 C 511.42 399.17 516.67 375.75 520.40 352.07 C 526.01 319.42 531.59 286.77 537.12 254.11 C 537.43 252.26 537.63 250.40 537.82 248.54 C 556.12 248.23 574.42 248.57 592.72 248.36 C 592.71 331.82 592.74 415.28 592.72 498.75 C 580.31 498.75 567.89 498.73 555.48 498.77 C 555.48 446.83 555.46 394.90 555.50 342.96 C 555.51 336.52 555.39 330.08 555.31 323.63 C 554.95 323.94 554.23 324.55 553.88 324.85 C 551.00 343.15 547.80 361.41 544.45 379.63 C 540.37 404.11 535.96 428.53 532.12 453.05 C 529.38 468.22 526.62 483.40 524.25 498.63 C 512.08 498.78 499.88 498.91 487.71 498.60 C 486.74 489.33 484.49 480.25 482.98 471.07 C 481.78 463.36 480.27 455.71 479.18 447.98 C 477.72 440.74 476.68 433.42 475.31 426.16 C 474.52 420.38 472.91 414.74 472.36 408.93 L 473.22 407.07 C 472.23 407.83 471.27 408.61 470.29 409.36 C 471.26 414.84 472.37 420.30 473.34 425.78 C 473.78 456.65 473.30 487.57 473.46 518.45 C 460.17 518.57 446.88 518.30 433.60 518.58 C 429.00 513.46 425.66 507.36 421.90 501.65 L 420.23 500.91 C 422.71 506.67 424.86 512.57 426.96 518.48 C 411.20 518.48 395.44 518.43 379.68 518.51 C 375.21 512.90 371.92 506.50 368.12 500.45 C 368.73 500.50 369.93 500.60 370.54 500.64 C 374.27 504.80 377.54 509.34 380.97 513.75 C 394.20 513.69 407.44 513.98 420.66 513.60 C 411.69 491.24 403.94 468.42 395.17 445.98 C 394.71 444.74 394.28 443.50 393.82 442.28 C 391.84 436.88 389.94 431.44 387.82 426.10 C 383.47 414.01 378.64 402.11 374.38 389.99 C 372.10 384.29 370.44 378.31 367.61 372.84 C 376.90 354.48 385.09 335.60 394.38 317.24 C 401.73 300.38 410.50 284.13 417.84 267.29 C 418.25 267.11 419.09 266.75 419.50 266.56 C 419.42 270.96 419.82 275.60 417.44 279.53 C 402.31 310.62 387.98 342.10 372.60 373.06 C 376.21 381.38 378.86 390.07 382.13 398.52 C 386.06 409.38 390.19 420.15 394.18 430.98 C 402.55 454.40 411.77 477.49 419.99 500.96 C 421.01 500.65 422.03 500.34 423.05 500.03 C 427.46 504.28 430.86 509.47 435.40 513.60 C 446.51 513.99 457.65 513.67 468.78 513.75 C 468.73 478.13 468.78 442.50 468.77 406.89 C 468.90 406.33 469.17 405.23 469.31 404.68 C 469.44 405.75 469.71 407.89 469.84 408.96 C 470.50 408.27 471.17 407.58 471.84 406.91 C 466.69 378.22 461.94 349.41 456.65 320.77 C 456.19 324.50 456.27 328.26 456.29 332.02 C 456.42 387.55 456.19 443.09 456.39 498.62 C 444.69 498.92 432.99 498.67 421.28 498.77 C 421.11 415.31 421.28 331.86 421.25 248.41 Z" />
<path fill="#ffffff" opacity="1.00" d=" M 845.60 248.45 C 857.85 248.39 870.11 248.46 882.37 248.38 C 879.22 264.99 876.40 281.67 873.79 298.38 C 868.92 327.26 863.89 356.13 859.14 385.04 C 857.79 390.95 857.17 396.99 855.78 402.89 C 855.56 404.60 855.37 406.31 855.17 408.02 C 854.53 410.32 854.47 412.73 853.85 415.04 C 853.56 417.02 853.44 419.04 852.85 420.97 C 851.61 428.64 850.33 436.31 848.85 443.94 C 848.58 445.95 848.43 448.00 847.86 449.96 C 845.53 466.30 842.40 482.53 839.54 498.78 C 822.00 499.02 804.43 498.18 786.92 499.21 C 786.63 498.97 786.05 498.50 785.76 498.26 C 783.32 482.48 780.46 466.78 777.81 451.04 C 775.44 435.06 772.48 419.16 769.86 403.22 C 767.02 383.73 763.30 364.38 760.37 344.89 C 758.55 334.27 756.94 323.62 754.89 313.04 C 753.19 302.68 751.85 292.26 749.84 281.95 C 747.83 270.81 746.46 259.57 744.37 248.44 C 757.65 248.33 770.93 248.51 784.21 248.41 C 785.97 265.39 789.21 282.19 791.68 299.08 C 794.76 320.79 798.79 342.35 801.91 364.06 C 804.39 381.38 807.62 398.59 809.86 415.95 C 811.32 425.35 812.95 434.73 813.96 444.19 C 815.91 436.50 816.60 428.55 817.77 420.72 L 818.21 420.05 C 818.79 414.06 819.98 408.16 820.86 402.21 C 821.23 400.12 821.57 398.04 822.09 395.99 C 824.72 376.36 828.33 356.89 831.43 337.33 C 834.54 315.53 838.63 293.89 841.72 272.08 C 842.75 264.16 844.68 256.38 845.60 248.45 Z" />
<path fill="#ffffff" opacity="1.00" d=" M 223.35 248.88 C 228.80 253.36 233.45 258.73 238.45 263.69 C 246.14 312.21 255.04 360.56 262.87 409.06 C 264.24 416.71 265.73 424.35 266.87 432.04 C 268.01 438.00 269.07 444.01 269.84 450.04 C 270.44 452.31 270.52 454.69 271.15 456.96 C 271.61 460.33 272.45 463.65 272.83 467.04 C 273.41 469.33 273.48 471.73 274.14 474.02 C 274.40 476.00 274.55 478.02 275.16 479.94 C 276.33 486.29 276.92 492.70 276.75 499.16 C 277.18 499.54 278.03 500.30 278.46 500.69 C 279.91 506.54 280.59 512.53 281.64 518.46 C 266.70 518.48 251.75 518.44 236.81 518.50 C 232.42 512.72 228.12 506.76 225.04 500.17 C 227.06 499.66 228.06 501.47 229.15 502.68 C 232.04 506.32 235.21 509.74 237.90 513.54 C 250.79 514.00 263.71 513.79 276.61 513.62 C 275.14 506.82 274.12 499.93 272.83 493.10 C 270.83 481.41 269.11 469.66 266.85 458.02 C 265.47 450.36 264.45 442.64 262.88 435.02 C 253.54 378.49 243.65 322.02 234.22 265.51 C 231.56 262.21 228.96 258.88 226.05 255.80 C 224.20 253.98 223.58 251.38 223.35 248.88 Z" />
<path fill="#ffffff" opacity="1.00" d=" M 319.49 248.76 C 324.43 253.43 328.95 258.53 333.65 263.45 C 334.71 264.32 334.64 265.77 334.68 267.01 C 334.74 282.68 334.57 298.35 334.85 314.01 C 335.31 318.61 331.87 322.16 330.37 326.23 C 330.14 306.81 330.29 287.39 330.27 267.97 C 330.48 265.45 328.50 263.60 326.94 261.92 C 324.17 259.12 321.93 255.87 319.33 252.92 C 319.38 251.53 319.43 250.14 319.49 248.76 Z" />
<path fill="#ffffff" opacity="1.00" d=" M 479.35 248.79 C 484.17 253.99 489.23 258.97 494.16 264.09 C 496.57 282.42 500.17 300.57 503.15 318.82 C 506.31 338.92 510.28 358.90 513.27 379.03 C 513.03 383.10 511.92 387.07 511.15 391.06 C 511.03 390.47 510.80 389.27 510.68 388.68 C 503.56 347.44 496.67 306.16 489.44 264.95 C 486.11 261.08 482.98 257.04 479.60 253.22 C 479.50 251.74 479.40 250.26 479.35 248.79 Z" />
<path fill="#ffffff" opacity="1.00" d=" M 594.41 248.79 C 599.91 253.21 604.34 258.83 609.62 263.52 C 610.15 269.34 610.24 275.18 609.77 280.99 C 610.62 287.33 609.36 293.66 609.76 300.03 C 609.39 304.67 610.60 309.30 609.94 313.92 C 609.53 316.62 610.43 319.31 610.00 322.01 C 610.32 332.66 610.35 343.35 610.01 354.00 C 610.50 365.97 610.09 377.97 610.21 389.96 C 610.12 393.63 610.49 397.34 609.91 401.00 C 610.65 406.96 609.90 412.97 609.89 418.95 C 610.43 423.62 609.15 428.33 610.10 432.99 C 609.52 440.29 609.62 447.69 610.07 455.00 C 609.68 476.08 609.63 497.28 609.85 518.42 C 597.24 518.57 584.63 518.39 572.03 518.51 C 570.56 518.31 568.47 519.10 567.60 517.48 C 563.53 511.94 559.85 506.11 556.19 500.29 C 557.62 500.42 559.09 500.73 559.99 501.98 C 563.36 505.83 566.57 509.82 570.04 513.59 C 581.80 514.04 593.59 513.62 605.37 513.78 C 605.53 432.18 605.40 350.59 605.42 268.99 C 605.24 267.51 605.85 265.67 604.62 264.52 C 601.26 260.73 598.10 256.77 594.77 252.96 C 594.62 251.57 594.49 250.18 594.41 248.79 Z" />
<path fill="#ffffff" opacity="1.00" d=" M 925.90 249.30 C 917.06 262.06 908.39 274.96 899.96 287.98 C 898.66 295.30 897.36 302.66 896.13 310.01 C 894.85 315.95 894.12 322.00 892.86 327.95 C 890.50 344.55 886.86 360.93 884.26 377.50 C 880.16 399.43 876.82 421.51 872.62 443.42 C 868.86 465.64 864.59 487.76 861.11 510.02 C 860.33 512.82 860.44 515.79 859.46 518.55 C 839.02 518.28 818.57 518.68 798.14 518.34 C 794.30 512.26 789.33 506.77 786.77 499.99 C 789.47 500.22 790.75 502.81 792.43 504.55 C 795.16 507.48 797.33 510.96 800.34 513.60 C 818.28 513.90 836.27 513.88 854.21 513.58 C 854.48 508.68 855.20 503.80 856.14 499.00 C 856.39 497.01 856.56 494.99 857.17 493.07 C 857.42 491.05 857.60 489.02 858.15 487.06 C 865.21 447.31 871.27 407.39 878.48 367.66 C 881.42 347.40 885.45 327.32 888.53 307.09 C 889.81 298.77 891.59 290.54 892.82 282.21 C 893.11 281.90 893.69 281.27 893.98 280.95 C 895.82 278.90 897.82 277.00 899.85 275.13 C 908.52 266.51 917.10 257.79 925.90 249.30 Z" />
<path fill="#ffffff" opacity="1.00" d=" M 408.86 249.01 C 412.03 251.14 414.16 254.43 416.91 257.05 C 419.52 259.32 420.03 263.09 419.27 266.31 C 417.66 261.32 412.68 258.50 409.61 254.44 C 407.78 253.10 408.22 250.86 408.86 249.01 Z" />
<path fill="#ffffff" opacity="1.00" d=" M 786.00 248.67 C 790.93 253.90 796.12 258.89 801.05 264.10 C 803.75 283.77 807.23 303.34 809.84 323.03 C 810.46 324.97 810.54 327.02 810.80 329.04 C 814.30 348.97 816.87 369.06 820.33 389.00 C 820.95 392.63 819.76 396.19 819.46 399.79 C 819.39 400.48 819.27 401.87 819.21 402.57 L 817.66 402.76 C 817.50 400.87 817.33 398.99 817.14 397.11 C 815.93 390.78 815.05 384.38 814.15 378.00 C 813.03 371.69 812.08 365.35 811.14 359.01 C 808.31 340.66 805.50 322.31 802.63 303.96 C 800.62 291.34 799.18 278.61 796.54 266.10 C 794.00 261.28 789.59 257.71 786.62 253.16 C 786.46 252.04 786.16 249.80 786.00 248.67 Z" />
<path fill="#ffffff" opacity="1.00" d=" M 729.48 270.40 C 741.69 279.43 749.13 293.95 751.26 308.82 C 753.12 317.74 752.67 326.90 752.75 335.96 C 752.84 367.33 752.81 398.70 752.78 430.07 C 752.55 446.24 753.91 462.71 749.81 478.54 C 745.16 496.45 731.49 511.84 713.98 518.00 C 709.82 519.70 705.36 520.27 701.02 521.22 C 686.58 522.41 671.42 522.33 657.93 516.38 C 645.69 511.52 636.43 501.35 630.45 489.85 C 634.69 493.52 639.33 496.77 642.99 501.06 C 654.16 513.01 671.16 517.46 687.05 517.50 C 700.58 517.87 714.66 514.78 725.65 506.56 C 737.42 498.04 744.88 484.34 746.82 470.05 C 747.87 463.74 747.85 457.34 748.20 450.98 C 748.22 408.30 748.21 365.63 748.21 322.95 C 747.76 313.71 747.01 304.29 743.46 295.65 C 740.29 287.27 734.45 280.38 730.18 272.61 C 730.00 272.06 729.65 270.95 729.48 270.40 Z" />
<path fill="#ffffff" opacity="1.00" d=" M 671.50 300.47 C 676.60 294.16 685.69 292.36 693.23 294.68 C 693.34 295.71 693.57 297.76 693.69 298.78 C 688.01 298.15 681.38 297.69 676.88 301.94 C 670.96 307.16 671.04 315.71 670.81 322.96 C 671.50 357.96 670.90 392.93 671.17 427.92 C 671.33 440.13 670.79 452.36 671.68 464.55 C 670.26 464.16 668.86 463.78 667.45 463.41 C 666.85 460.63 666.39 457.82 666.47 454.97 C 666.26 410.97 666.50 366.97 666.34 322.97 C 666.19 315.29 666.35 306.70 671.50 300.47 Z" />
<path fill="#ffffff" opacity="1.00" d=" M 198.80 347.81 C 200.10 352.70 200.62 357.82 200.71 362.88 C 199.12 374.62 196.71 386.25 195.12 398.01 C 193.92 403.07 193.45 408.27 192.33 413.35 C 191.30 413.36 189.25 413.39 188.23 413.40 C 191.32 391.48 194.80 369.59 198.80 347.81 Z" />
<path fill="#ffffff" opacity="1.00" d=" M 536.46 513.75 C 542.00 481.07 547.57 448.37 553.28 415.72 C 553.66 419.82 554.31 423.92 554.19 428.04 C 553.37 434.36 554.20 440.83 552.64 447.07 C 548.50 470.87 544.66 494.73 540.19 518.47 C 526.78 518.45 513.37 518.52 499.96 518.41 C 496.35 512.30 491.07 506.98 489.00 500.08 C 489.54 500.21 490.63 500.47 491.17 500.60 C 494.61 505.12 498.44 509.32 502.06 513.69 C 513.52 513.86 524.99 513.76 536.46 513.75 Z" />
<path fill="#ffffff" opacity="1.00" d=" M 336.92 423.98 C 338.62 425.06 338.73 427.33 339.50 429.03 C 337.85 432.30 336.12 435.54 334.69 438.92 C 334.75 465.41 334.56 491.90 334.79 518.38 C 320.10 518.62 305.41 518.35 290.72 518.51 C 286.74 512.57 282.12 506.99 279.14 500.44 C 279.68 500.49 280.76 500.59 281.30 500.64 C 285.42 504.81 288.63 510.12 293.27 513.66 C 305.57 513.94 317.90 513.68 330.22 513.78 C 330.34 488.26 330.11 462.73 330.35 437.23 C 332.19 432.66 334.95 428.51 336.92 423.98 Z" />
<path fill="#ffffff" opacity="1.00" d=" M 104.29 456.22 C 106.35 452.50 109.90 449.61 113.99 448.42 C 109.21 456.55 103.84 464.30 98.79 472.26 C 97.94 471.12 97.17 469.93 96.44 468.73 C 98.88 464.45 101.83 460.48 104.29 456.22 Z" />
<path fill="#ffffff" opacity="1.00" d=" M 178.76 466.52 C 179.00 466.35 179.47 466.00 179.71 465.82 C 190.45 465.69 201.20 465.86 211.94 465.76 C 213.84 465.70 215.74 465.88 217.62 466.24 C 217.64 467.70 217.66 469.16 217.66 470.63 C 206.02 470.32 194.35 470.54 182.70 470.51 C 180.02 486.53 177.26 502.53 174.56 518.54 C 161.03 518.37 147.50 518.52 133.97 518.44 C 129.94 512.37 125.51 506.54 122.00 500.14 C 126.04 500.24 127.57 504.47 130.05 506.94 C 132.20 509.09 133.75 511.90 136.26 513.67 C 140.16 514.02 144.10 513.51 148.01 514.00 C 155.53 513.50 163.08 513.89 170.62 513.77 C 173.78 498.10 176.03 482.26 178.76 466.52 Z" />
<path fill="#ffffff" opacity="1.00" d=" M 183.49 552.57 C 192.32 552.65 201.16 552.44 209.99 552.71 C 224.51 575.18 239.42 597.42 254.02 619.85 C 254.89 621.34 255.74 622.93 257.14 624.01 C 271.98 599.95 287.57 576.36 302.86 552.58 C 311.75 552.59 320.64 552.60 329.53 552.58 C 329.69 591.63 329.50 630.69 329.64 669.74 C 319.96 669.56 310.26 669.99 300.58 669.58 C 300.77 647.00 300.80 624.40 300.56 601.83 C 292.96 612.51 286.29 623.88 278.99 634.79 C 273.82 642.66 269.12 650.88 263.59 658.47 C 258.89 658.71 254.16 658.69 249.46 658.45 C 241.53 646.67 233.97 634.65 226.02 622.88 C 221.48 616.21 217.57 609.08 212.50 602.79 C 212.52 625.04 212.44 647.30 212.56 669.56 C 202.91 670.01 193.24 669.50 183.59 669.85 C 183.40 630.76 183.63 591.66 183.49 552.57 Z" />
<path fill="#ffffff" opacity="1.00" d=" M 357.31 669.77 C 357.42 630.69 357.24 591.61 357.40 552.54 C 390.10 552.65 422.81 552.60 455.51 552.53 C 455.47 560.13 455.61 567.73 455.44 575.33 C 432.79 575.30 410.14 575.32 387.49 575.33 C 387.51 583.11 387.53 590.88 387.48 598.66 C 407.41 598.68 427.34 598.60 447.27 598.67 C 447.26 606.05 447.28 613.43 447.27 620.81 C 428.82 620.80 410.39 621.00 391.95 620.80 C 390.43 620.78 388.93 621.00 387.44 621.22 C 387.59 629.72 387.48 638.21 387.48 646.71 C 410.85 646.62 434.22 646.82 457.59 646.60 C 457.90 654.30 457.68 662.02 457.73 669.73 C 424.26 669.73 390.78 669.70 357.31 669.77 Z" />
<path fill="#ffffff" opacity="1.00" d=" M 478.54 552.60 C 498.67 552.58 518.80 552.59 538.93 552.59 C 548.17 552.39 557.35 554.14 566.18 556.78 C 567.12 557.13 568.06 557.47 569.02 557.80 C 569.99 558.14 570.97 558.47 571.96 558.81 C 586.17 564.66 598.08 576.29 603.25 590.89 C 603.78 592.93 604.36 594.97 604.87 597.04 C 606.67 605.68 606.85 614.58 605.19 623.26 C 602.09 639.56 591.06 654.03 576.18 661.35 C 564.55 667.68 551.09 670.00 537.96 669.70 C 518.12 669.63 498.27 669.91 478.44 669.59 C 478.75 630.60 478.49 591.60 478.54 552.60 M 508.94 580.01 C 508.65 601.73 508.82 623.46 508.85 645.18 C 509.04 645.48 509.42 646.08 509.61 646.38 C 524.47 645.92 539.82 648.08 554.19 643.31 C 558.22 641.49 562.09 639.27 565.45 636.38 C 572.66 629.72 576.00 619.62 575.51 609.95 C 575.80 601.11 572.38 592.16 565.96 586.03 C 558.02 578.52 546.67 575.71 536.00 575.92 C 534.32 575.87 532.66 575.86 531.00 575.91 C 523.95 575.67 516.90 575.89 509.85 575.87 C 508.21 576.67 508.89 578.57 508.94 580.01 Z" />
<path fill="#ffffff" opacity="1.00" d=" M 626.66 552.63 C 636.84 552.60 647.03 552.55 657.21 552.65 C 657.25 591.61 657.07 630.57 657.31 669.52 C 647.06 669.91 636.78 669.79 626.53 669.60 C 626.77 630.61 626.56 591.62 626.66 552.63 Z" />
<path fill="#ffffff" opacity="1.00" d=" M 726.76 552.60 C 737.29 552.51 747.82 552.64 758.35 552.50 C 761.71 558.96 764.92 565.51 768.23 572.01 C 781.79 600.19 795.83 628.14 809.55 656.24 C 811.55 660.80 814.42 664.97 815.96 669.73 C 805.28 669.64 794.60 669.85 783.93 669.72 C 780.90 662.63 777.39 655.75 774.23 648.71 C 773.40 647.39 773.18 644.92 771.06 645.39 C 751.50 645.35 731.94 645.43 712.39 645.37 C 708.52 653.40 704.95 661.56 701.29 669.68 C 690.79 669.74 680.29 669.75 669.79 669.73 C 676.79 654.36 684.44 639.28 691.77 624.06 C 697.55 611.56 704.12 599.45 709.97 586.98 C 715.49 575.49 721.54 564.24 726.76 552.60 M 741.86 580.63 C 736.18 594.47 729.40 607.83 723.40 621.53 C 723.14 621.76 722.62 622.22 722.36 622.45 C 726.43 623.83 730.78 622.98 734.99 623.18 C 744.15 622.93 753.37 623.70 762.49 622.81 C 758.71 615.13 755.21 607.32 751.72 599.51 C 748.83 593.13 745.57 586.89 743.16 580.31 C 742.84 580.39 742.19 580.55 741.86 580.63 Z" />
<path fill="#ffffff" opacity="1.00" d=" M 197.48 712.90 C 198.89 712.73 200.31 712.78 201.72 712.75 C 201.64 713.08 201.47 713.74 201.39 714.07 C 198.33 716.44 195.62 720.18 191.21 719.28 C 191.46 719.05 191.98 718.60 192.23 718.37 C 193.84 716.43 195.31 714.23 197.48 712.90 Z" />
<path fill="#ffffff" opacity="1.00" d=" M 203.31 721.64 C 204.78 721.63 206.24 721.62 207.71 721.61 C 208.34 725.71 207.57 729.85 207.82 733.97 C 207.68 738.87 208.63 744.37 205.53 748.62 C 199.81 755.84 185.90 754.58 182.79 745.44 C 180.69 737.72 182.10 729.61 181.68 721.72 C 183.27 721.69 184.86 721.67 186.46 721.66 C 186.53 728.81 186.35 735.97 186.63 743.13 C 188.22 746.81 191.92 749.52 196.06 748.82 C 200.21 748.92 203.29 745.00 203.25 741.07 C 203.37 734.59 203.22 728.11 203.31 721.64 Z" />
<path fill="#ffffff" opacity="1.00" d=" M 218.19 723.50 C 223.72 720.06 230.78 721.34 236.42 723.83 C 236.40 724.18 236.35 724.87 236.33 725.21 C 235.79 726.03 235.24 726.83 234.66 727.63 C 233.09 727.28 231.72 726.38 230.30 725.68 C 227.19 725.61 223.45 724.58 220.87 726.85 C 218.74 728.16 218.85 731.73 221.00 732.99 C 225.48 736.06 231.76 735.30 235.81 739.13 C 238.08 741.20 237.47 744.41 237.38 747.14 C 235.26 751.83 229.77 753.38 225.02 753.30 C 221.27 753.09 217.70 751.80 214.39 750.10 C 214.39 748.66 214.65 747.25 215.04 745.89 C 219.74 748.16 225.38 750.75 230.53 748.25 C 232.36 747.50 232.92 745.57 233.40 743.85 C 230.81 739.59 225.33 739.54 221.05 738.23 C 218.08 737.20 215.57 735.20 214.56 732.14 C 214.46 728.96 215.29 725.27 218.19 723.50 Z" />
<path fill="#ffffff" opacity="1.00" d=" M 351.85 721.66 C 353.45 721.67 355.05 721.72 356.66 721.80 C 352.51 728.26 348.57 734.85 344.53 741.36 C 343.91 745.04 344.34 748.81 344.38 752.52 C 342.77 752.65 341.17 752.75 339.58 752.88 C 339.42 749.09 339.84 745.28 339.40 741.51 C 335.45 734.88 331.33 728.33 327.33 721.72 C 328.96 721.66 330.59 721.61 332.23 721.57 C 335.64 726.95 338.92 732.42 342.18 737.89 C 345.14 732.33 348.66 727.09 351.85 721.66 Z" />
<path fill="#ffffff" opacity="1.00" d=" M 692.36 721.68 C 693.71 721.67 695.06 721.66 696.43 721.66 C 696.63 722.21 697.03 723.31 697.23 723.86 C 696.16 733.39 697.01 743.10 696.80 752.70 C 695.35 752.74 693.90 752.79 692.47 752.86 C 692.21 748.38 692.52 743.89 692.36 739.42 C 692.11 739.24 691.62 738.89 691.37 738.71 C 686.15 738.65 680.92 738.60 675.71 738.69 C 675.51 739.00 675.11 739.62 674.91 739.93 C 674.65 744.21 674.90 748.51 674.81 752.80 C 673.27 752.78 671.74 752.76 670.23 752.76 C 670.42 742.34 669.98 731.91 670.46 721.50 C 671.90 721.98 674.72 720.73 675.14 722.91 C 675.08 726.83 674.54 730.75 675.27 734.67 C 680.98 734.65 686.70 734.74 692.42 734.57 C 692.34 730.27 692.31 725.98 692.36 721.68 Z" />
<path fill="#ffffff" opacity="1.00" d=" M 705.25 721.64 C 706.72 721.62 708.19 721.61 709.67 721.62 C 709.83 728.09 709.58 734.56 709.76 741.04 C 709.78 745.35 713.45 749.27 717.90 748.85 C 722.14 749.59 726.41 746.19 726.51 741.89 C 726.67 735.14 726.50 728.39 726.53 721.64 C 728.02 721.96 730.56 720.87 731.30 722.62 C 731.44 727.39 731.27 732.16 731.35 736.94 C 731.42 740.60 731.27 744.52 729.33 747.75 C 723.93 756.56 707.50 754.46 705.53 743.90 C 704.83 736.52 705.25 729.05 705.25 721.64 Z" />
<path fill="#ffffff" opacity="1.00" d=" M 804.80 723.00 C 808.23 721.09 812.23 721.45 815.99 721.72 C 818.72 722.90 822.08 723.72 823.36 726.76 C 822.36 727.63 821.39 728.52 820.43 729.43 C 816.49 724.45 808.18 724.28 803.88 728.88 C 797.82 734.21 800.25 745.62 807.79 748.26 C 811.47 749.30 815.72 749.15 818.88 746.78 C 820.58 745.15 822.62 746.76 823.90 748.06 C 817.81 755.24 805.39 754.69 799.45 747.60 C 792.97 740.24 795.55 726.80 804.80 723.00 Z" />
<path fill="#ffffff" opacity="1.00" d=" M 139.84 722.77 C 140.31 720.70 142.59 721.79 144.07 721.58 C 148.29 728.75 152.45 735.97 156.96 742.97 C 161.29 735.90 165.02 728.47 169.57 721.54 C 170.55 721.56 172.52 721.62 173.51 721.64 C 173.61 732.01 173.54 742.37 173.61 752.74 C 171.98 752.72 170.36 752.68 168.74 752.64 C 169.51 745.41 168.63 738.16 168.68 730.92 C 164.43 737.03 161.53 744.01 157.05 749.95 C 156.10 748.97 155.01 748.13 154.39 746.91 C 151.28 741.48 148.26 735.98 144.67 730.86 C 144.51 738.18 144.74 745.51 144.57 752.83 C 143.10 752.80 141.63 752.78 140.16 752.77 C 139.16 748.53 140.46 744.25 140.23 739.98 C 140.53 734.23 139.37 728.52 139.84 722.77 Z" />
<path fill="#ffffff" opacity="1.00" d=" M 243.68 721.72 C 245.26 721.68 246.84 721.65 248.43 721.64 C 248.60 732.01 248.38 742.38 248.53 752.75 C 246.88 752.70 245.23 752.65 243.59 752.57 C 243.88 742.29 243.61 732.00 243.68 721.72 Z" />
<path fill="#ffffff" opacity="1.00" d=" M 260.72 724.73 C 266.86 719.96 276.01 720.60 282.08 725.15 C 283.48 726.79 280.68 728.17 280.04 729.56 C 278.67 727.98 276.90 726.87 275.02 726.01 C 272.95 725.51 270.81 725.61 268.71 725.69 C 265.03 726.70 261.55 729.17 260.35 732.92 C 258.63 737.32 259.63 742.74 263.16 745.97 C 267.91 749.97 275.69 749.92 279.99 745.24 C 280.96 746.17 281.94 747.11 282.92 748.06 C 276.69 755.61 263.58 754.57 257.95 746.84 C 252.89 740.27 254.01 729.75 260.72 724.73 Z" />
<path fill="#ffffff" opacity="1.00" d=" M 297.66 721.59 C 299.17 721.63 300.69 721.66 302.21 721.69 C 306.13 730.50 309.92 739.38 314.21 748.02 C 314.82 749.60 315.44 751.19 315.96 752.82 C 314.23 752.76 312.51 752.67 310.80 752.57 C 310.36 751.00 309.83 749.49 309.24 748.00 C 308.86 747.08 308.49 746.16 308.14 745.25 C 302.64 745.20 297.13 745.19 291.62 745.29 C 290.57 747.71 289.68 750.20 288.58 752.61 C 286.91 752.87 285.22 752.63 283.55 752.57 C 288.64 742.43 292.53 731.70 297.66 721.59 M 293.32 741.37 C 297.62 741.44 301.93 741.48 306.23 741.33 C 304.45 736.46 302.09 731.83 300.18 727.01 C 296.88 731.12 295.84 736.71 293.32 741.37 Z" />
<path fill="#ffffff" opacity="1.00" d=" M 372.22 752.73 C 372.35 742.33 372.09 731.93 372.38 721.54 C 373.34 721.57 375.27 721.62 376.23 721.65 C 380.65 728.62 384.12 736.25 388.95 742.92 C 393.45 735.97 396.78 728.29 401.61 721.56 C 402.53 721.60 404.38 721.69 405.30 721.74 C 405.41 732.03 405.18 742.33 405.42 752.63 C 403.79 752.69 402.17 752.68 400.56 752.64 C 400.76 745.43 400.77 738.21 400.57 731.00 C 397.02 736.83 393.52 742.68 390.26 748.68 C 389.19 748.68 387.73 749.30 387.07 748.11 C 383.57 742.52 380.72 736.49 376.78 731.18 C 376.64 738.37 376.68 745.57 376.73 752.76 C 375.22 752.74 373.72 752.73 372.22 752.73 Z" />
<path fill="#ffffff" opacity="1.00" d=" M 413.65 752.47 C 415.07 742.26 413.39 731.79 414.44 721.63 C 421.45 721.75 428.46 721.75 435.47 721.58 C 435.91 722.93 436.45 724.31 435.71 725.69 C 430.03 725.61 424.36 725.69 418.69 725.63 C 418.80 728.75 418.30 731.97 419.02 735.05 C 423.63 734.73 428.26 735.24 432.90 735.29 C 435.10 735.03 434.00 737.51 433.90 738.73 C 428.83 738.73 423.76 738.64 418.70 738.74 C 418.65 742.10 418.67 745.46 418.70 748.83 C 424.61 748.73 430.53 748.80 436.44 748.68 C 436.50 750.03 436.56 751.39 436.62 752.76 C 428.97 752.61 421.28 753.10 413.65 752.47 Z" />
<path fill="#ffffff" opacity="1.00" d=" M 442.56 721.69 C 447.69 721.75 452.83 721.60 457.97 721.80 C 461.71 722.58 465.56 723.74 468.29 726.58 C 471.72 730.11 472.78 735.29 472.37 740.07 C 471.29 746.29 466.49 751.44 460.18 752.44 C 454.31 752.96 448.39 752.81 442.51 752.60 C 442.78 742.30 442.62 731.99 442.56 721.69 M 447.53 725.71 C 447.40 733.35 447.53 740.99 447.49 748.63 C 451.96 748.49 456.63 749.21 460.96 747.81 C 468.17 745.21 469.86 734.63 464.66 729.36 C 462.77 727.05 459.69 726.55 456.99 725.77 C 453.83 725.70 450.68 725.70 447.53 725.71 Z" />
<path fill="#ffffff" opacity="1.00" d=" M 478.58 721.67 C 480.18 721.65 481.78 721.65 483.38 721.65 C 483.40 732.02 483.32 742.39 483.41 752.75 C 481.78 752.74 480.15 752.73 478.53 752.73 C 478.68 742.37 478.52 732.02 478.58 721.67 Z" />
<path fill="#ffffff" opacity="1.00" d=" M 498.10 723.21 C 502.71 720.74 508.21 721.12 513.02 722.76 C 518.25 724.72 521.15 729.79 522.29 735.01 C 522.31 736.64 522.31 738.29 522.27 739.95 C 521.00 744.98 518.05 750.01 512.95 751.88 C 504.68 755.63 493.49 751.49 490.59 742.65 C 487.85 735.52 491.06 726.47 498.10 723.21 M 500.58 726.80 C 494.67 729.64 492.68 737.69 495.86 743.24 C 499.18 749.25 508.24 750.74 513.48 746.41 C 518.26 742.80 518.92 735.22 515.58 730.44 C 512.38 725.66 505.62 724.26 500.58 726.80 Z" />
<path fill="#ffffff" opacity="1.00" d=" M 531.15 723.07 C 536.68 720.21 543.28 721.52 548.75 723.85 C 548.26 725.15 547.76 726.47 547.27 727.79 C 542.94 725.24 537.38 724.39 532.80 726.78 C 531.75 728.36 530.71 730.73 532.42 732.29 C 536.32 735.73 542.03 735.17 546.39 737.77 C 551.60 740.39 550.86 749.23 545.66 751.49 C 539.92 754.34 532.86 753.55 527.44 750.35 C 525.79 749.48 526.55 746.63 528.16 746.15 C 532.55 748.74 538.34 750.63 543.17 748.13 C 545.81 746.87 546.26 742.74 543.44 741.39 C 539.00 738.91 533.40 739.14 529.24 736.01 C 527.43 734.54 527.28 732.07 526.63 730.01 C 527.28 727.26 528.48 724.41 531.15 723.07 Z" />
<path fill="#ffffff" opacity="1.00" d=" M 567.58 721.70 C 575.24 722.15 583.69 720.18 590.60 724.47 C 600.45 730.06 599.47 747.49 588.57 751.34 C 581.93 753.93 574.52 752.38 567.56 752.62 C 567.73 742.31 567.65 732.00 567.58 721.70 M 572.54 725.70 C 572.44 733.35 572.50 741.00 572.49 748.65 C 576.65 748.58 580.86 748.96 584.97 748.18 C 588.53 747.26 590.97 744.30 592.39 741.06 C 592.69 737.44 593.11 733.37 590.57 730.41 C 588.70 727.48 585.23 726.49 582.06 725.75 C 578.88 725.69 575.71 725.69 572.54 725.70 Z" />
<path fill="#ffffff" opacity="1.00" d=" M 603.63 721.72 C 610.91 721.64 618.20 721.74 625.49 721.70 C 625.52 722.68 625.59 724.65 625.62 725.63 C 619.91 725.67 614.20 725.67 608.49 725.67 C 608.42 728.68 608.42 731.71 608.35 734.73 C 613.44 735.70 618.67 734.99 623.83 735.22 C 623.81 736.38 623.79 737.56 623.78 738.74 C 618.71 738.73 613.63 738.80 608.56 738.69 C 608.31 742.06 608.40 745.44 608.40 748.83 C 614.03 748.84 619.67 748.71 625.30 748.83 C 627.18 749.21 626.18 751.37 626.47 752.70 C 618.82 752.73 611.16 752.89 603.52 752.61 C 603.77 742.32 603.55 732.01 603.63 721.72 Z" />
<path fill="#ffffff" opacity="1.00" d=" M 632.67 721.69 C 634.24 721.68 635.82 721.69 637.41 721.70 C 637.55 730.73 637.42 739.77 637.51 748.80 C 642.85 748.66 648.19 748.89 653.53 748.63 C 653.65 749.99 653.76 751.36 653.87 752.75 C 646.77 752.72 639.68 752.90 632.60 752.63 C 632.75 742.32 632.70 732.00 632.67 721.69 Z" />
<path fill="#ffffff" opacity="1.00" d=" M 734.20 752.65 C 738.87 742.36 743.35 731.99 747.95 721.67 C 749.58 721.63 751.23 721.63 752.88 721.67 C 757.35 732.08 761.85 742.51 766.91 752.66 C 765.17 752.70 763.45 752.72 761.74 752.74 C 760.72 750.29 760.05 747.69 758.70 745.41 C 754.14 744.95 749.54 745.33 744.96 745.20 C 740.74 744.41 740.72 749.88 739.35 752.56 C 737.63 752.67 735.91 752.69 734.20 752.65 M 750.11 726.90 C 748.34 731.82 745.71 736.40 744.09 741.38 C 748.33 741.42 752.58 741.41 756.83 741.37 C 754.63 736.54 753.07 731.30 750.11 726.90 Z" />
<path fill="#ffffff" opacity="1.00" d=" M 770.90 724.93 C 774.47 720.97 780.28 721.28 785.14 721.70 C 786.94 722.38 788.81 722.95 790.52 723.90 C 790.68 725.99 789.20 729.13 787.04 726.73 C 783.48 725.25 779.10 724.72 775.60 726.56 C 773.17 727.74 772.63 731.48 775.03 732.99 C 779.62 735.74 785.63 735.41 789.84 738.94 C 792.36 741.19 792.04 745.04 791.22 748.01 C 789.33 751.71 784.87 753.03 781.00 753.26 C 776.47 753.29 771.62 752.30 768.18 749.16 C 768.74 748.09 769.35 747.05 769.99 746.04 C 774.58 748.46 780.26 750.70 785.30 748.20 C 787.88 746.89 788.11 743.07 785.62 741.55 C 780.48 738.63 773.40 739.28 769.53 734.21 C 769.40 731.13 768.36 727.31 770.90 724.93 Z" />
<path fill="#ffffff" opacity="1.00" d=" M 835.25 723.17 C 841.67 719.91 850.42 721.28 855.11 726.90 C 861.12 733.61 859.82 745.56 852.19 750.54 C 847.68 753.46 841.92 753.80 836.86 752.28 C 832.37 750.46 828.51 746.75 827.30 741.96 C 824.96 734.93 828.46 726.28 835.25 723.17 M 840.01 725.77 C 837.87 726.44 835.72 727.45 834.23 729.16 C 829.78 733.94 830.47 742.41 835.53 746.51 C 838.55 749.14 842.94 749.23 846.69 748.47 C 852.86 746.63 855.99 738.81 853.55 733.04 C 851.74 727.63 845.47 724.48 840.01 725.77 Z" />
</g>
<g id="#5f5f5fff">
<path fill="#5f5f5f" opacity="1.00" d=" M 882.37 248.38 C 882.67 248.56 883.26 248.94 883.56 249.13 C 884.28 249.16 885.74 249.22 886.47 249.25 L 885.51 250.11 L 883.92 250.36 C 884.25 251.21 884.90 252.90 885.23 253.75 C 884.60 253.24 883.34 252.22 882.71 251.71 C 879.43 266.36 877.58 281.31 874.73 296.05 C 874.50 296.63 874.02 297.79 873.79 298.38 C 876.40 281.67 879.22 264.99 882.37 248.38 Z" />
<path fill="#5f5f5f" opacity="1.00" d=" M 894.23 274.00 C 894.25 272.50 894.01 270.86 895.22 269.72 C 895.26 271.51 895.42 273.31 895.62 275.10 C 896.05 274.52 896.90 273.36 897.33 272.78 C 897.40 273.53 897.53 275.03 897.60 275.78 C 898.16 275.62 899.28 275.29 899.85 275.13 C 897.82 277.00 895.82 278.90 893.98 280.95 C 893.71 278.62 894.31 276.32 894.23 274.00 Z" />
</g>
<g id="#181919ff">
</g>
<g id="#000100ff">
</g>
<g id="#fefffeff">
<path fill="#fefffe" opacity="1.00" d=" M 883.92 250.36 L 885.51 250.11 C 890.37 254.48 894.86 259.29 899.42 263.99 C 898.97 266.93 898.66 270.07 897.33 272.78 C 896.90 273.36 896.05 274.52 895.62 275.10 C 895.42 273.31 895.26 271.51 895.22 269.72 C 895.28 268.39 895.37 267.07 895.51 265.76 C 892.01 261.82 888.41 257.94 885.23 253.75 C 884.90 252.90 884.25 251.21 883.92 250.36 Z" />
</g>
<g id="#464646ff">
<path fill="#464646" opacity="1.00" d=" M 726.60 270.52 C 727.65 270.05 728.70 269.58 729.76 269.10 C 729.69 269.42 729.55 270.07 729.48 270.40 C 729.65 270.95 730.00 272.06 730.18 272.61 L 728.11 273.38 C 727.59 272.43 727.09 271.47 726.60 270.52 Z" />
</g>
<g id="#1b1b1bff">
</g>
<g id="#fefefeff">
<path fill="#fefefe" opacity="1.00" d=" M 104.16 470.34 C 111.70 466.81 119.03 462.72 126.84 459.84 C 126.40 461.66 125.90 463.48 125.34 465.28 C 118.33 468.01 111.85 471.95 104.89 474.83 C 99.54 477.53 94.12 480.12 88.69 482.66 C 88.32 482.93 87.58 483.46 87.21 483.73 C 89.53 478.33 93.32 473.69 96.44 468.73 C 97.17 469.93 97.94 471.12 98.79 472.26 C 100.54 473.23 102.45 470.92 104.16 470.34 Z" />
</g>
<g id="#010101ff">
</g>
</svg>
